<?xml version="1.0" encoding="utf-8"?>
<!-- Generator: Adobe Illustrator 21.1.0, SVG Export Plug-In . SVG Version: 6.00 Build 0)  -->
<svg version="1.1" id="Camada_1" xmlns="http://www.w3.org/2000/svg" xmlns:xlink="http://www.w3.org/1999/xlink" x="0px" y="0px"
	 width="135px" height="41.3px" viewBox="0 0 135 41.3" style="enable-background:new 0 0 135 41.3;" xml:space="preserve">
<style type="text/css">
	.st0{filter:url(#Adobe_OpacityMaskFilter);}
	.st1{fill:#FFFFFF;}
	.st2{mask:url(#mask-2);fill:#333543;}
	.st3{fill:#333543;}
	.st4{fill:#0BE0AA;}
	.st5{fill:#00EBD8;}
	.st6{fill:#00D2F2;}
</style>
<title>Group 22</title>
<desc>Created with Sketch.</desc>
<g>
	<defs>
		<filter id="Adobe_OpacityMaskFilter" filterUnits="userSpaceOnUse" x="0" y="21.9" width="14.5" height="19.4">
			<feColorMatrix  type="matrix" values="1 0 0 0 0  0 1 0 0 0  0 0 1 0 0  0 0 0 1 0"/>
		</filter>
	</defs>
	<mask maskUnits="userSpaceOnUse" x="0" y="21.9" width="14.5" height="19.4" id="mask-2">
		<g class="st0">
			<polygon id="path-1" class="st1" points="0,21.9 14.5,21.9 14.5,41.3 0,41.3 			"/>
		</g>
	</mask>
	<path id="Fill-1" class="st2" d="M11,38.1v-5.7c0-0.9-0.3-1.6-1-2.1c-0.6-0.5-1.5-0.7-2.5-0.7c-1.4,0-2.4,0.4-3,1.2
		c-0.7,0.8-1,1.9-1,3.4c0,1.6,0.4,2.8,1.1,3.5c0.7,0.7,1.9,1.1,3.4,1.1C9.3,38.8,10.3,38.6,11,38.1 M0,34.2c0-1.4,0.3-2.6,0.8-3.7
		c0.5-1.1,1.3-1.9,2.3-2.5c1-0.6,2.2-0.9,3.6-0.9c2,0,3.4,0.4,4.3,1.3v-5.5c0-0.4,0.1-0.6,0.3-0.8c0.2-0.2,0.4-0.3,0.8-0.3h1.4
		c0.4,0,0.6,0.1,0.8,0.3c0.2,0.2,0.3,0.4,0.3,0.8v16.6c-0.7,0.5-1.7,1-2.9,1.3c-1.2,0.3-2.4,0.5-3.7,0.5C2.6,41.3,0,38.9,0,34.2"/>
	<path id="Fill-4" class="st3" d="M34.8,40.7c-0.2-0.2-0.3-0.4-0.3-0.8V28.2c0-0.3,0-0.5,0.1-0.6c0.1-0.1,0.3-0.2,0.6-0.2h1.6
		c0.4,0,0.6,0.2,0.6,0.6l0.1,1.1c1.3-1.4,3.1-2.1,5.5-2.1c1.5,0,2.7,0.4,3.6,1.2c0.9,0.8,1.4,2,1.4,3.7v8c0,0.3-0.1,0.6-0.2,0.8
		c-0.2,0.2-0.4,0.3-0.8,0.3h-1.5c-0.4,0-0.6-0.1-0.8-0.3c-0.2-0.2-0.3-0.4-0.3-0.8v-7.7c0-0.9-0.2-1.6-0.6-1.9
		c-0.4-0.4-1.1-0.6-2-0.6c-1,0-1.8,0.3-2.6,0.8c-0.7,0.5-1.1,1.2-1.1,2.1v7.4c0,0.3-0.1,0.6-0.2,0.8c-0.2,0.2-0.4,0.3-0.8,0.3h-1.5
		C35.2,40.9,35,40.8,34.8,40.7"/>
	<path id="Fill-6" class="st3" d="M51.5,40.7c-0.2-0.2-0.3-0.4-0.3-0.8V28.2c0-0.3,0-0.5,0.1-0.6c0.1-0.1,0.3-0.2,0.6-0.2h1.6
		c0.4,0,0.6,0.2,0.6,0.6l0.1,1.1c1.3-1.4,3.1-2.1,5.5-2.1c1.5,0,2.7,0.4,3.7,1.2c0.9,0.8,1.4,2,1.4,3.7v8c0,0.3-0.1,0.6-0.2,0.8
		c-0.2,0.2-0.4,0.3-0.8,0.3h-1.5c-0.4,0-0.6-0.1-0.8-0.3c-0.2-0.2-0.3-0.4-0.3-0.8v-7.7c0-0.9-0.2-1.6-0.6-1.9
		c-0.4-0.4-1.1-0.6-2-0.6c-1,0-1.9,0.3-2.6,0.8c-0.7,0.5-1.1,1.2-1.1,2.1v7.4c0,0.3-0.1,0.6-0.2,0.8c-0.2,0.2-0.4,0.3-0.8,0.3h-1.5
		C51.9,40.9,51.6,40.8,51.5,40.7"/>
	<path id="Fill-8" class="st3" d="M77.5,37.6c0.7-0.8,1-1.9,1-3.4c0-1.5-0.3-2.6-1-3.3c-0.7-0.8-1.7-1.1-3-1.1c-1.3,0-2.3,0.4-3,1.1
		c-0.7,0.8-1.1,1.9-1.1,3.3c0,1.5,0.3,2.6,1.1,3.3c0.7,0.8,1.7,1.2,3,1.2C75.8,38.7,76.8,38.3,77.5,37.6 M68.9,39.4
		c-1.3-1.3-2-3-2-5.2c0-2.2,0.7-3.9,2-5.2c1.3-1.3,3.2-1.9,5.6-1.9c2.4,0,4.3,0.6,5.6,1.9c1.3,1.3,2,3,2,5.2c0,2.2-0.7,3.9-2,5.2
		c-1.3,1.3-3.2,1.9-5.6,1.9C72.1,41.3,70.2,40.7,68.9,39.4"/>
	<path id="Fill-10" class="st3" d="M92.1,40.7c-0.5,0.2-1,0.2-1.2,0.2h-0.5c-0.8,0-1.2-0.4-1.3-0.7l-5.6-11.9
		c-0.1-0.1-0.1-0.2-0.1-0.3c0-0.1,0-0.2,0.1-0.3c0.1-0.1,0.2-0.1,0.4-0.1h2.3c0.2,0,0.4,0,0.5,0.1c0.1,0.1,0.2,0.2,0.3,0.4
		c0,0,3.6,8.7,3.7,9c0.1,0.3,0.6,0.3,0.9,0.1c0.6-0.6,1.3-2.1,1.9-3.5c1.3-3.2,1.1-5.5,1.1-5.5c0-0.3,0-0.4,0.1-0.5
		c0.1-0.1,0.2-0.1,0.4-0.1h2.2c0.6,0,0.6,0.4,0.6,0.6c0,0,0,3.3-1,6C94.9,39.8,92.9,40.5,92.1,40.7"/>
	<path id="Fill-12" class="st3" d="M111.9,34.3c1,2.7,1,6,1,6c0,0.3,0,0.6-0.6,0.6h-2.2c-0.2,0-0.3,0-0.4-0.1
		c-0.1-0.1-0.2-0.2-0.1-0.5c0,0,0.2-2.3-1.1-5.5c-0.6-1.5-1.4-2.9-1.9-3.5c-0.2-0.2-0.7-0.3-0.9,0.1c-0.1,0.3-3.7,9-3.7,9
		c-0.1,0.2-0.2,0.4-0.3,0.4c-0.1,0.1-0.3,0.1-0.5,0.1h-2.3c-0.1,0-0.3,0-0.3-0.1c-0.1-0.1-0.1-0.2-0.1-0.3c0-0.1,0-0.2,0.1-0.3
		l5.6-11.9c0.1-0.3,0.5-0.7,1.3-0.7h0.5c0.3,0,0.8,0,1.2,0.2C107.6,28,109.6,28.6,111.9,34.3"/>
	<path id="Fill-14" class="st3" d="M30.6,34.4c0.7-0.2,1.1-0.9,1.1-1.5c0-1.7-0.7-3.1-1.7-4c-1.2-1.2-3-1.8-5.3-1.8
		c-2.4,0-4.2,0.6-5.5,1.9c-1.3,1.2-1.9,3.1-1.9,5.5c0,1.5,0.3,2.8,1,3.9c0.7,1,1.6,1.8,2.8,2.3c1.2,0.5,2.5,0.7,3.9,0.7
		c1.2,0,2.2-0.1,3.1-0.3c0.9-0.2,1.7-0.6,2.5-1c0.2-0.1,0.3-0.2,0.3-0.4c0-0.1,0-0.2-0.1-0.3l-0.7-1.2c-0.1-0.2-0.2-0.3-0.3-0.3
		c-0.1,0-0.2,0-0.3,0.1c-1.2,0.7-2.5,1-4,1c-1.2,0-2.1-0.2-2.9-0.7c-0.7-0.4-1.2-1-1.5-1.6c-0.5-1-0.7-2.2-0.6-3.3
		c0.1-1,0.4-1.9,1-2.6c0.6-0.7,1.9-1.4,3.2-1.4c1.3,0,3.3,0.4,4.1,3.2c0,0-1.6,0.6-3.7,1c-1.1,0.2-2.1,0.3-2.6,0.4
		c-0.8,0.2,0,1.7,0.4,2.2c1.1-0.1,2.3-0.3,3-0.4C29.2,35,30.6,34.4,30.6,34.4"/>
</g>
<g>
	<path id="Fill-16" class="st4" d="M123.2,0c0,6.5-5.3,11.7-11.7,11.7c6.5,0,11.7,5.3,11.7,11.7c0-6.5,5.3-11.7,11.7-11.7
		C128.5,11.7,123.2,6.5,123.2,0"/>
	<path id="Fill-18" class="st5" d="M93.1,6c-1,1.7-2.5,3.2-4.2,4.2c-1.2,0.7-1.2,2.4,0,3.2c1.7,1,3.2,2.5,4.2,4.2
		c0.7,1.2,2.4,1.2,3.2,0c1-1.7,2.5-3.2,4.2-4.2c1.2-0.7,1.2-2.4,0-3.2c-1.7-1-3.2-2.5-4.2-4.2C95.6,4.7,93.8,4.7,93.1,6"/>
	<path id="Fill-20" class="st6" d="M72.2,9.4C72.2,9.4,72.2,9.4,72.2,9.4c-1.4,1.4-1.4,3.4-0.1,4.7c0,0,0.1,0.1,0.1,0.1
		c1.3,1.3,3.3,1.3,4.6,0c0,0,0.1-0.1,0.1-0.1c1.3-1.3,1.3-3.3,0-4.6c0,0-0.1-0.1-0.1-0.1C75.5,8,73.5,8,72.2,9.4"/>
</g>
</svg>
